<?xml version="1.0" encoding="UTF-8" standalone="no"?>
<!-- Created with Inkscape (http://www.inkscape.org/) -->

<svg
   width="520"
   height="520"
   viewBox="0 0 137.58334 137.58334"
   version="1.1"
   id="svg5"
   inkscape:version="1.1 (c68e22c387, 2021-05-23)"
   sodipodi:docname="qris.svg"
   xmlns:inkscape="http://www.inkscape.org/namespaces/inkscape"
   xmlns:sodipodi="http://sodipodi.sourceforge.net/DTD/sodipodi-0.dtd"
   xmlns="http://www.w3.org/2000/svg"
   xmlns:svg="http://www.w3.org/2000/svg">
  <sodipodi:namedview
     id="namedview7"
     pagecolor="#505050"
     bordercolor="#eeeeee"
     borderopacity="1"
     inkscape:pageshadow="0"
     inkscape:pageopacity="0"
     inkscape:pagecheckerboard="0"
     inkscape:document-units="mm"
     showgrid="false"
     inkscape:zoom="0.62992818"
     inkscape:cx="-107.15507"
     inkscape:cy="260.34714"
     inkscape:window-width="1366"
     inkscape:window-height="715"
     inkscape:window-x="-8"
     inkscape:window-y="-8"
     inkscape:window-maximized="1"
     inkscape:current-layer="layer1"
     units="px"
     showguides="true"
     inkscape:guide-bbox="true"
     inkscape:snap-object-midpoints="true"
     inkscape:snap-others="true" />
  <defs
     id="defs2" />
  <g
     inkscape:label="Layer 1"
     inkscape:groupmode="layer"
     id="layer1">
    <path
       style="fill:#000000;stroke-width:0.169332"
       d="m 1.0583433,126.87301 v -9.65199 H 10.9643 20.870259 v 9.65199 9.65199 H 10.9643 1.0583433 Z m 16.5945997,0.16933 v -6.604 H 10.9643 4.2756597 v 6.604 6.60398 H 10.9643 17.652943 Z m -11.0066233,-0.0847 v -4.318 H 10.9643 15.282283 v 4.318 4.318 H 10.9643 6.6463197 Z m 16.4252593,5.33399 v -4.23333 h 1.693323 1.693333 v 4.23333 4.23334 h -1.693333 -1.693323 z m 14.054611,1.60867 v -2.62466 H 35.940854 34.75553 v 1.43933 1.43933 h -3.047987 -3.047988 v -3.04799 -3.04801 h 1.439324 1.439335 v -2.70513 -2.70513 l 2.751647,-0.0465 2.751659,-0.0465 0.0504,-1.05834 0.0504,-1.05834 h -2.802049 -2.802067 v -1.43932 -1.43932 h -1.185327 -1.185324 v 1.43932 1.43932 h -1.362745 -1.362743 l 0.0504,1.05834 0.0504,1.05834 1.312334,0.0495 1.312324,0.0495 v 1.60154 1.60153 h -3.047987 -3.047987 v -9.65196 -9.65199 h -1.100665 -1.100655 v 1.35856 1.35858 l -3.005657,-0.0462 -3.005658,-0.0462 -0.0495,-1.31233 -0.0495,-1.31233 h -1.256016 -1.256024 l -0.0492,-1.397 -0.0492,-1.397 -1.389995,-0.0491 -1.3899931,-0.0491 -0.0493,-1.30558 -0.0493,-1.30561 -2.4976592,-0.0469 -2.4976493,-0.0469 v 1.10519 1.1052 H 5.714901 7.1542248 v 2.79399 2.794 h 2.7156784 2.7156778 l -0.0487,1.56633 -0.0487,1.56632 -1.312334,0.0495 -1.3123238,0.0495 v 1.43221 1.4322 H 5.4609745 1.0583333 v -1.60864 -1.60868 h 1.3546543 1.3546642 v -2.53998 -2.54 H 2.4129877 1.0583333 v -3.048 -3.04798 H 2.4129877 3.7676518 V 99.271812 98.086474 H 2.4129877 1.0583333 v -1.516863 -1.516878 l 1.3123245,-0.0495 1.3123244,-0.0495 0.0501,-1.142999 0.0501,-1.142997 H 2.4207276 1.0583333 v -1.608668 -1.608668 h 1.6086532 1.6086632 v 1.439339 1.439325 h 1.4393237 1.439334 v 1.36275 1.362737 l 1.0583254,-0.0504 1.0583255,-0.0504 0.0465,-2.744886 0.0465,-2.744876 1.3928327,-0.0491 1.392835,-0.0491 0.0495,-1.312339 0.0495,-1.312322 h 2.702199 2.702199 v -1.439325 -1.439338 h 1.354663 1.354655 v -1.100665 -1.10066 h -1.354656 -1.354663 v -1.447067 -1.447068 l -1.142996,0.0501 -1.142995,0.0501 -0.0465,2.751654 -0.0465,2.751665 H 12.568905 9.8637758 v 1.439339 1.439327 H 5.4611345 1.0584833 v -1.693366 -1.693338 h 1.3546643 1.3546541 v -1.100666 -1.10066 H 2.4131476 1.0584833 v -1.608667 -1.608657 h 1.3577842 1.3577742 l -0.0454,-3.936994 -0.0455,-3.936992 -1.3123244,-0.0495 -1.3123244,-0.0495 v -5.665539 -5.66553 H 2.4131476 3.7678117 V 57.954454 56.769116 H 2.4131476 1.0584933 v -1.608658 -1.608666 h 3.047987 3.0479871 v 1.354669 1.354656 h 2.7093184 2.7093192 v 1.439337 1.439328 h 1.347543 1.347535 l 0.0495,1.312327 0.0495,1.312328 3.852314,0.0455 3.852323,0.0455 v -1.357836 -1.357848 h 1.693323 1.693323 v 2.709335 2.709325 h 1.100665 1.100665 v -6.942658 -6.942649 h 1.439324 1.439324 V 49.572438 48.47178 h -3.979313 -3.979313 v 1.354659 1.354666 h -1.354665 -1.354664 v 1.185331 1.185336 h 2.793988 2.793988 v 1.608657 1.608668 h -2.793988 -2.793988 v 1.354668 1.354658 h -1.608654 -1.608662 v -1.608659 -1.608666 h 1.354663 1.354655 v -1.185327 -1.185338 h -1.354655 -1.354663 v -1.362398 -1.362399 l -1.142996,0.0501 -1.142995,0.0501 -0.0495,1.312325 -0.0495,1.31233 H 12.311975 9.355778 V 51.181163 48.471838 H 6.8157888 4.2757996 v 1.354659 1.354666 H 2.6671465 1.0584833 V 48.13317 45.085176 H 5.2071356 9.355778 V 43.730508 42.37585 h 2.751658 2.751658 V 41.275229 40.174562 H 10.752771 6.6464596 v -1.608658 -1.608668 h 5.5033064 5.503317 v -1.354667 -1.354657 h 2.709318 2.709318 v -2.539995 -2.539996 h -1.100665 -1.100655 v 1.354658 1.354667 H 19.261735 17.653083 V 30.514848 29.15244 l -1.142996,0.0501 -1.142995,0.0501 -0.0495,1.312339 -0.0495,1.312327 H 11.21123 7.1543674 v 1.354668 1.354657 H 5.7150534 4.2757196 v 4.148662 4.148664 H 2.6670665 1.0584033 v -4.317991 -4.31799 H 2.4130676 3.7677217 V 33.062638 31.877309 H 2.4130676 1.0584033 v -4.402652 -4.402663 h 4.4026512 4.4026413 v 1.354669 1.354657 h 1.1853342 1.185326 v -1.354657 -1.354669 h 5.414447 5.414446 l 0.0465,-2.751664 0.0465,-2.751667 1.650993,-0.0485 1.650993,-0.0485 v 2.800133 2.800125 h 1.097655 1.097645 l 0.0453,-4.106333 0.0453,-4.106321 1.396994,-0.0492 1.396995,-0.0492 v -1.340698 -1.34069 l 1.312333,-0.0495 1.312325,-0.0495 0.0469,-2.4976643 0.0469,-2.4976557 H 33.066727 31.876872 V 8.4244916 9.863819 h -1.354665 -1.354654 v 1.354668 1.354657 H 27.55889 25.950227 V 11.218366 9.8636979 H 24.510903 23.071579 V 8.1703709 6.4770438 h 1.439324 1.439324 V 3.7677185 1.0583933 h 5.757316 5.757305 v 1.3623976 1.3623975 l 1.142995,-0.0501 1.142995,-0.0501 0.0495,-1.3123277 0.0495,-1.3123274 h 1.516863 1.516874 V 2.6669906 4.2756577 H 41.61358 40.343586 v 1.1006681 1.1006581 h 1.263145 1.263144 l 0.0492,1.3969976 0.0492,1.3969974 1.142994,0.0501 1.142996,0.0501 V 6.5694537 3.7677185 h 1.354663 1.354665 V 2.413051 1.0583933 h 3.047987 3.047988 v 1.6086573 1.6086671 h -1.439335 -1.439324 v 1.1006681 1.100658 h 1.439324 1.439335 v 1.4393375 1.4393276 h 1.354654 1.354664 v 2.7093241 2.709336 h 1.185325 1.185335 v -1.350477 -1.350468 l 2.751648,-0.0465 2.751659,-0.0465 0.0495,-1.312328 0.0495,-1.3123371 h 1.601533 1.601543 v 1.3546671 1.354668 h 2.45532 2.45532 V 10.971547 9.8780099 l -1.312326,-0.0495 -1.312323,-0.0495 -0.0492,-1.3969975 -0.0492,-1.3969977 H 68.784694 67.43688 V 5.6303453 4.2756877 H 66.343345 65.2498 l -0.0495,1.3123277 -0.0494,1.3123278 -1.390255,0.0491 -1.390254,0.0491 -0.0491,1.3902575 -0.0491,1.3902576 -1.566324,0.048699 -1.566323,0.048701 V 8.176781 6.4770938 h 1.354654 1.354664 V 5.1224262 3.7677685 h 1.439324 1.439334 V 2.413101 1.0584333 h 1.608653 1.608663 V 2.413101 3.7677685 h 1.262875 1.262865 l 0.0495,1.3123277 0.0495,1.3123279 2.582329,0.0467 2.58232,0.0467 V 5.1267663 3.7676885 h 1.354663 1.354655 V 2.413021 1.0583633 h 7.196639 7.196639 v 1.6086573 1.6086671 h -1.439323 -1.439335 v 1.1006681 1.100658 h 2.793989 2.793988 v 1.4393375 1.4393276 h 1.354665 1.354664 v 1.6086661 1.608659 H 95.54614 92.836822 v 1.093546 1.093539 l 1.312325,0.0495 1.312333,0.0495 0.0495,1.312327 0.0495,1.312339 h 1.086416 1.086416 l 0.0495,-1.312339 0.0494,-1.312327 1.312334,-0.0495 1.312324,-0.0495 V 9.5178886 4.2756877 H 97.832211 95.207563 V 2.6670206 1.0583633 h 5.672637 5.67264 V 2.413021 3.7676885 h 2.53999 2.53999 V 2.413021 1.0583633 h 1.60866 1.60865 v 4.4026523 4.4026623 h -1.34754 -1.34754 l -0.0495,1.3123271 -0.0495,1.312338 -1.56633,0.0487 -1.56631,0.0487 V 9.7853881 6.9850429 h -2.53999 -2.53999 v 1.185328 1.185328 h 1.35464 1.35467 v 2.7022061 2.702204 l 1.31232,0.0495 1.31234,0.0495 0.0452,4.360333 0.0452,4.360321 h -1.35753 -1.3575 v 1.100668 1.100659 h 1.35465 1.35466 v 3.047993 3.047996 h -2.70931 -2.70932 v 1.185339 1.185328 h 1.35465 1.35467 v 1.608666 1.608657 h -2.80173 -2.80171 l 0.0501,1.142999 0.0501,1.142997 2.75165,0.0465 2.75166,0.0465 v 2.620476 2.620464 h 2.54807 2.54807 l -0.0504,-1.058338 -0.0504,-1.058328 -1.31233,-0.0495 -1.31232,-0.0495 v -4.310864 -4.310872 h 1.35465 1.35467 v -1.439339 -1.439328 h 3.04798 3.048 v 1.447418 1.447408 l 1.05832,-0.0504 1.05832,-0.0504 0.0491,-1.390257 0.0491,-1.390258 1.39027,-0.0491 1.39025,-0.0491 0.0495,-1.312335 0.0495,-1.31233 h 1.26286 1.26287 v -1.439327 -1.439337 h 1.43933 1.43933 v -1.354659 -1.354668 h 1.60866 1.60867 v 1.608667 1.608659 h -1.43935 -1.43932 v 1.185337 1.185327 h 2.794 2.79398 v 2.963326 2.963334 h -1.35466 -1.35465 v 1.185309 1.185327 h 1.34781 1.3478 l 0.0492,1.396999 0.0492,1.396996 1.14299,0.0501 1.14301,0.0501 v 1.508527 1.508517 l -1.14301,0.0501 -1.14299,0.0501 -0.0504,1.058338 -0.0504,1.058328 h 1.1934 1.19343 v 1.693326 1.693336 h -1.18535 -1.18532 v 1.354659 1.354666 h -1.35466 -1.35465 v 1.35467 1.354658 h -1.43935 -1.43932 v 1.185338 1.185326 h 1.43932 1.43935 v 1.439328 1.439338 h 1.18532 1.18532 v -1.439338 -1.439328 h 1.35466 1.35468 v 1.608666 1.608659 h -1.18535 -1.18532 v 1.185337 1.185328 h 1.18532 1.18535 v 1.608667 1.608658 h -1.19308 -1.19306 l 0.0501,1.142998 0.0501,1.142998 1.14299,0.0501 1.14301,0.0501 v 1.508527 1.508527 l -1.14301,0.0501 -1.14299,0.0501 -0.0501,1.142999 -0.0501,1.142998 h 1.19306 1.19308 v 1.608657 1.608667 h -1.18535 -1.18532 v 1.185328 1.185338 h 1.18532 1.18535 v 1.608657 1.608667 h -1.18535 -1.18532 v 1.100659 1.100667 h 1.18532 1.18535 v 1.693337 1.693328 h -1.18535 -1.18532 v 1.100664 1.100657 h 1.18532 1.18535 v 1.608668 1.608668 h -1.35468 -1.35466 v -1.354663 -1.354669 h -1.18532 -1.18532 v 1.354669 1.354668 h -1.43935 -1.43932 v 1.439327 1.439327 h -1.35466 -1.35466 v 1.100669 1.100673 h 1.35466 1.35466 v 1.354646 1.354678 h 1.43932 1.43935 v 1.35465 1.35467 h 1.18102 1.18102 l 0.0466,-2.66699 0.0466,-2.667005 1.31232,-0.0495 1.31235,-0.0495 v 2.970455 2.97045 h -1.18535 -1.18532 v 1.18533 1.18533 h 1.18532 1.18535 v 4.40265 4.40265 h -1.18535 -1.18532 v 2.54001 2.53998 h 1.18532 1.18535 v 8.29733 8.29733 h -1.35468 -1.35466 v -1.18535 -1.18532 h -1.43932 -1.43933 v -1.43933 -1.43933 h -1.18533 -1.18533 v 2.62466 2.62467 h -2.87866 -2.87863 v -1.43934 -1.43934 h 1.26286 1.26286 l 0.0495,-1.31232 0.0494,-1.31233 1.397,-0.0492 1.397,-0.0492 v -1.17847 -1.17849 h -1.43933 -1.43933 v -1.36275 -1.36274 l -1.05833,0.0504 -1.05832,0.0504 -0.0495,1.31233 -0.0495,1.31233 h -2.70221 -2.70219 v 1.35467 1.35466 h -1.60866 -1.60867 v -1.35466 -1.35467 h -2.62465 -2.62466 v 1.18533 1.18533 h 1.43934 1.43932 v 2.794 2.794 h -4.40265 -4.40265 v -2.62467 -2.62466 h -1.44568 -1.44568 l 0.0487,-1.56633 0.0487,-1.56633 1.65099,-0.0485 1.65099,-0.0485 v 1.44546 1.44546 h 1.10065 1.10068 v -1.43933 -1.43934 h 1.43932 1.43933 v -1.10066 -1.10067 h -1.43248 -1.43248 l -0.0492,-1.39698 -0.0492,-1.397 -5.20698,-0.0448 -5.20698,-0.0448 v 1.44178 1.44176 h -5.503306 -5.503307 v 1.10067 1.10066 h 1.354654 1.354664 v 3.04801 3.04799 h -1.354664 -1.354654 v 1.18532 1.18535 h -3.048116 -3.047987 v -1.18535 -1.18532 h -1.185525 -1.185325 v 1.18532 1.18535 H 74.46402 72.855368 v -1.43934 -1.43934 h 1.439323 1.439325 v -1.18532 -1.18533 h -1.445675 -1.445683 l 0.0487,-1.56633 0.0487,-1.56633 1.396994,-0.0492 1.396995,-0.0492 v -1.09382 -1.09383 h -3.894655 -3.894643 v 1.10067 1.10066 h 1.269995 1.269994 v 1.60868 1.60866 h -1.269995 -1.269995 v 1.18533 1.18532 h 1.269995 1.269994 v 1.43934 1.43934 H 68.968473 67.45222 l -0.0501,-1.14301 -0.0501,-1.14299 -1.312325,-0.0495 -1.312334,-0.0495 v -1.4322 -1.43221 h -1.439324 -1.439324 v -1.35466 -1.35467 h -1.100666 -1.100664 v 1.35467 1.35466 h -1.439325 -1.439323 v 2.62466 2.62467 h -5.757316 -5.757305 v -1.18535 -1.18532 H 43.81478 42.375456 v -1.43933 -1.43933 H 41.35946 40.343465 v 2.62466 2.62467 h -1.608664 -1.608652 z m 13.715941,-1.60867 v -1.35466 h 1.357773 1.357786 l -0.0455,-3.93699 -0.0454,-3.93699 H 52.366135 51.26547 l -0.0465,2.75165 -0.0465,2.75167 h -1.350465 -1.350474 v 1.35467 1.35466 h -1.354655 -1.354663 v 1.18533 1.18532 h 2.539989 2.539989 z M 84.03132,132.461 v -1.18533 h -2.539989 -2.53999 v 1.18533 1.18532 h 2.53999 2.539989 z m 24.89189,0 v -1.18533 h -1.18533 -1.18533 v 1.18533 1.18532 h 1.18533 1.18533 z m -69.122302,-2.66699 -0.0501,-1.143 -1.142995,-0.0501 -1.142995,-0.0501 v 1.19307 1.19307 h 1.193065 1.193065 z m 27.601222,0 -0.0501,-1.143 -1.058336,-0.0504 -1.058325,-0.0504 v 1.19341 1.19341 h 1.108395 1.108405 z m -30.3102,-2.794 -0.0504,-1.05833 -1.142996,-0.0501 -1.142994,-0.0501 v 1.10841 1.10839 h 1.193414 1.193406 z m 5.283567,-1.48167 v -2.53999 h -1.015996 -1.015995 v 2.53999 2.53999 h 1.015995 1.015996 z m 5.587976,1.43125 v -1.10874 l -1.058325,0.0504 -1.058335,0.0504 -0.0504,1.05833 -0.0504,1.05832 h 1.108745 1.108745 z m 11.175953,0.008 v -1.10068 h -1.185325 -1.185335 v 1.10068 1.10066 h 1.185335 1.185325 z m 5.553726,0.0423 -0.0504,-1.05832 -1.142996,-0.0501 -1.142995,-0.0501 v 1.1084 1.1084 h 1.193405 1.193405 z m 69.121938,-2.75165 v -3.81001 h -1.18532 -1.18532 v 2.7025 2.70248 l -1.39701,0.0492 -1.39699,0.0492 -0.0504,1.05833 -0.0504,1.05832 h 2.63275 2.63272 z m -55.371746,-0.24688 v -1.34754 l 1.312323,-0.0495 1.312325,-0.0495 0.0495,-1.31233 0.0495,-1.31235 h 1.679072 1.679083 l 0.0495,1.31235 0.0494,1.31233 h 1.015996 1.015996 l 0.0494,-1.30816 0.0494,-1.30819 2.744599,-0.0465 2.744608,-0.0465 0.0501,-1.14299 0.0501,-1.14299 H 89.542529 86.7408 v -1.60866 -1.60867 h 1.439324 1.439334 v -1.18532 -1.18533 H 86.82547 84.031482 v -2.96333 -2.96333 h 2.963318 2.963315 v 2.794 2.79398 h 1.185336 1.185325 v -1.43249 -1.43247 l 1.396994,-0.0492 1.396995,-0.0492 v -1.016 -1.016 l -1.390255,-0.0491 -1.390254,-0.0491 -0.0491,-1.39027 -0.0491,-1.39025 -1.305325,-0.0493 -1.305334,-0.0493 -0.0493,-1.30533 -0.0493,-1.30533 -2.49766,-0.0469 -2.49765,-0.0469 v 1.35918 1.3592 h -1.693333 -1.693322 v -1.35467 -1.35465 h -1.100666 -1.100655 v 1.35465 1.35467 H 73.201327 67.45114 l -0.0495,-1.31234 -0.0495,-1.31232 -1.058336,-0.0504 -1.058325,-0.0504 v 1.36273 1.36275 h -2.793988 -2.793988 v 1.43933 1.43933 h -1.608664 -1.608652 v -3.048 -3.04797 h 2.709318 2.709318 v -2.455327 -2.45534 h -1.100656 -1.100664 v 1.269998 1.270003 H 55.244851 50.84221 v -1.519802 -1.519817 l 2.751648,-0.0465 2.751658,-0.0465 0.0469,-2.497666 0.0469,-2.497667 H 55.24946 54.059606 v 1.354669 1.354668 H 52.450943 50.84229 V 91.312831 89.958162 H 49.656954 48.47163 v 1.354669 1.354668 h -1.354664 -1.354653 v 2.709314 2.709331 h -2.963487 -2.963318 v -1.269993 -1.269988 h -1.185325 -1.185335 v 1.269988 1.270003 H 36.110194 34.75553 v 1.178209 1.178207 l 1.312324,0.0495 1.312334,0.0495 0.0462,3.00564 0.0462,3.00567 h -1.612574 -1.612562 v -2.794 -2.79398 h -1.185325 -1.185335 v 4.14865 4.14866 h -1.608654 -1.608663 v -2.79401 -2.79398 h -2.539989 -2.539989 v 1.18533 1.18533 h 1.439324 1.439334 v 2.794 2.79398 h 1.354654 1.354664 v 1.35468 1.35465 h 1.185324 1.185337 v -1.35449 -1.35468 h 1.354653 1.354665 v -1.43933 -1.43932 h 2.793988 2.793988 v -1.35467 -1.35466 h 1.523993 1.523994 v 1.60866 1.60867 H 41.61342 40.343426 v 1.18532 1.18533 h 1.269994 1.269995 v 2.96333 2.96334 H 41.61342 40.343426 v 1.18532 1.18532 h 2.45532 2.455329 v -2.79398 -2.794 h 2.963318 2.963316 v 2.794 2.79398 h 1.432204 1.432205 l 0.0495,1.31235 0.0495,1.31233 h 1.100665 1.100665 l 0.0469,-2.49767 0.0469,-2.49765 H 54.995393 53.55154 v -2.79401 -2.79398 h -1.354664 -1.354664 v -1.35468 -1.35465 h -1.185326 -1.185324 v 1.35465 1.35468 h -1.608663 -1.608663 v -1.60868 -1.60865 h 1.354663 1.354665 v -1.10067 -1.10066 h -1.358575 -1.358563 l 0.0462,-3.00567 0.0462,-3.00564 1.566323,-0.0487 1.566323,-0.0487 v 2.80033 2.80036 h 2.793989 2.793988 v 2.794 2.79398 h 1.185334 1.185326 v -1.43933 -1.43932 h 1.608662 1.608654 v 1.43932 1.43933 h 1.100664 1.100666 v -1.43933 -1.43932 h 1.693323 1.693323 v 1.43932 1.43933 h 2.45533 2.455319 v -1.18533 -1.18532 h -1.354665 -1.354654 v -1.60867 -1.60866 h 2.963318 2.963318 v 2.794 2.79398 h 1.185334 1.185326 v -1.43933 -1.43932 h 1.354663 1.354655 v -1.35467 -1.35466 h 1.608652 1.608663 v 1.60866 1.60867 h -1.354663 -1.354655 v 1.18532 1.18533 h 1.354655 1.354663 v 1.35468 1.35465 h 1.439325 1.439333 v 1.60868 1.60866 h -4.233321 -4.233302 v 3.89464 3.89466 h 1.185325 1.185325 z M 39.835508,102.06572 v -1.60865 h 1.523993 1.523994 v 1.60865 1.60867 h -1.523994 -1.523993 z m 11.006623,0 v -1.60865 h 1.608653 1.608664 v 1.60865 1.60867 h -1.608664 -1.608653 z m 60.790399,19.38862 v -3.89464 h -1.18533 -1.18533 v 1.43933 1.43932 h -1.36275 -1.36273 l 0.0504,1.05834 0.0504,1.05834 1.31232,0.0495 1.31233,0.0495 v 1.34754 1.34753 h 1.18533 1.18533 z m 16.59459,1.43933 v -2.45533 h -1.18533 -1.18533 v 2.45533 2.45533 h 1.18533 1.18533 z m -66.417526,-4.19098 0.0455,-3.85233 h -2.543169 -2.543169 v 1.18534 1.18532 h 1.439323 1.439335 v 2.71741 2.71741 l 1.058325,-0.0504 1.058325,-0.0504 z m 11.045774,0.0423 v -3.89467 H 69.045383 65.2354 v 3.89467 3.89464 h 3.809983 3.809985 z m -5.418648,0.0847 v -1.60868 h 1.523993 1.523994 v 1.60868 1.60863 H 68.960713 67.43672 Z m 55.33261,-0.12702 0.0455,-3.85233 h -3.98251 -3.9825 v 3.89778 3.89779 l 3.93699,-0.0455 3.93699,-0.0454 z m -5.54882,0.13336 v -1.61502 h 1.61501 1.61501 l -0.0487,1.56634 -0.0487,1.56631 -1.56632,0.0487 -1.56632,0.0487 z m -16.76393,-0.26034 v -1.35468 h 1.43932 1.43933 v -1.18532 -1.18535 h -1.43933 -1.43932 v -1.60864 -1.60868 h 1.43932 1.43933 v -1.43933 -1.43932 h 1.35465 1.35468 v -1.10067 -1.10066 h -1.35468 -1.35465 v -1.69333 -1.69333 h 1.35465 1.35468 v -1.10067 -1.10066 h -1.35468 -1.35465 V 99.525731 98.086394 H 99.440584 95.54593 v 1.185338 1.185338 h 1.354665 1.354664 v 4.40265 4.40266 H 96.900595 95.54593 v 1.18532 1.18533 h 1.354665 1.354664 v 1.60868 1.60864 h -1.523993 -1.523993 v -1.43931 -1.43933 h -1.185336 -1.185325 v 2.62465 2.62466 h 2.709318 2.709329 v 1.24179 c 0,0.68297 0.0508,1.29256 0.112889,1.35464 0.0621,0.0621 0.557378,0.11289 1.100656,0.11289 h 0.987776 z m -63.36599,-2.82933 0.0491,-1.39 1.305593,-0.0493 1.305585,-0.0493 0.0501,-1.14301 0.0501,-1.14299 H 37.303349 34.75562 v 2.63239 2.63239 l 1.142994,-0.0501 1.142996,-0.0501 z m 71.83262,0.28933 v -1.18535 h -1.18533 -1.18533 v 1.18535 1.18532 h 1.18533 1.18533 z m 22.01323,0 v -1.18535 h -2.53999 -2.53999 v 1.07247 c 0,0.58983 0.0508,1.12323 0.1129,1.18531 0.0621,0.0621 1.20507,0.11289 2.53998,0.11289 h 2.4271 z m -52.493096,-2.87866 v -1.18533 h -1.185335 -1.185325 v 1.18533 1.18532 h 1.185325 1.185335 z m 27.601216,0 v -1.18533 h -1.10068 -1.10065 v 1.18533 1.18532 h 1.10065 1.10068 z m 5.58797,-2.96334 v -4.14865 h 1.43932 1.43933 v -1.43933 -1.43933 h 1.3592 1.35918 l -0.0469,-2.49765 -0.0469,-2.497666 -1.14299,-0.0501 -1.14301,-0.0501 v 1.447067 1.447079 h -1.60857 -1.60866 v -2.963337 -2.963339 h 3.04798 3.048 v 1.354668 1.354673 h 2.53998 2.54 v -1.100672 -1.100669 h -1.43933 -1.43934 v -1.601818 -1.601808 l 1.39701,-0.0492 1.39699,-0.0492 0.0469,-2.497656 0.0469,-2.49767 h -1.18274 -1.18273 l -0.0495,1.312333 -0.0495,1.312337 -1.30532,0.0493 -1.30533,0.0493 -0.0493,1.305328 -0.0493,1.305338 -5.55333,0.0447 -5.55333,0.0447 0.05,1.14068 0.05,1.140678 1.31232,0.0495 1.31233,0.0495 v 1.509765 1.509761 l -1.31233,0.0495 -1.31232,0.0495 -0.0501,1.142998 -0.0501,1.14301 h 1.36239 1.3624 v 1.60864 1.60867 h -1.35466 -1.35466 v 1.18533 1.18532 h 1.35466 1.35466 v 1.60866 1.60868 h -1.35466 -1.35466 v 1.18532 1.18533 h 1.35466 1.35466 v 1.35468 1.35465 h 1.18533 1.18533 z m 16.59459,0 v -1.43932 h 2.79399 2.79398 v -1.10067 -1.10066 h -1.43932 -1.43933 v -1.43933 -1.43933 h -1.18533 -1.18533 v 1.43933 1.43933 h -1.61479 -1.6148 l 0.0485,-1.651 0.0485,-1.651 1.397,-0.0492 1.397,-0.0492 v -1.09382 -1.0938 h -1.43933 -1.43933 v -1.44741 -1.447417 l -1.05833,0.0504 -1.05832,0.0504 -0.0492,1.396997 -0.0492,1.397 h -1.34782 -1.34782 v 1.10065 1.10067 h 1.35467 1.35466 v 1.69333 1.69333 h -1.60181 -1.60182 l -0.0492,-1.397 -0.0492,-1.397 -1.05832,-0.0504 -1.05832,-0.0504 v 2.54807 2.54809 h 2.70931 2.70933 v 1.32644 c 0,0.72954 0.0508,1.37724 0.11288,1.43933 0.0621,0.0621 1.20508,0.11288 2.53998,0.11288 h 2.42711 z M 20.362261,104.85198 v -1.19307 l -1.142995,0.0501 -1.142996,0.0501 -0.0501,1.143 -0.0501,1.143 h 1.193065 1.193065 z m -2.674108,-2.99793 0.0495,-1.31231 1.566323,-0.0487 1.566324,-0.0487 v 1.361 1.36103 h 1.100665 1.100665 v -1.35467 -1.35464 h 1.439324 1.439324 v -1.185358 -1.185338 h -1.439325 -1.439324 v -1.270003 -1.269998 h -1.100665 -1.100665 v 1.265818 1.265794 l -2.751649,0.0465 -2.751658,0.0465 -0.0492,1.396997 -0.0492,1.397008 h -1.347815 -1.347813 v 1.10064 1.10067 h 2.532869 2.532869 z m -5.453857,-2.751649 v -1.354656 h 1.312324 1.312334 V 96.647072 95.546403 H 12.361295 9.8636358 v 2.45534 2.455347 h 1.1853342 1.185326 z m 19.303918,0 v -1.354656 h 1.354653 1.354665 v -3.894669 -3.894664 h -1.185325 -1.185335 v 1.354669 1.354668 h -1.347805 -1.347814 l -0.0492,1.396997 -0.0492,1.396997 -1.312335,0.0494 -1.312324,0.0495 v 1.093539 1.093553 h 1.354664 1.354654 v 1.354646 1.354679 h 1.185334 1.185327 z m 38.607835,0.169341 v -1.185338 h -1.100666 -1.100665 v 1.185338 1.185338 h 1.100665 1.100666 z m 5.587967,-0.008 v -1.193071 l -1.142997,0.0501 -1.142994,0.0501 -0.0501,1.142998 -0.0501,1.143011 h 1.193064 1.193066 z m 16.559999,0.0501 -0.0501,-1.142998 -1.142995,-0.0501 -1.142997,-0.0501 v 1.193069 1.193077 h 1.193066 1.193065 z m -24.857295,-2.667 V 95.546173 H 66.336065 65.2354 v 1.100669 1.100673 h 1.100665 1.100655 z m 5.418648,0 v -1.100669 h -1.185336 -1.185325 v 1.100669 1.100673 h 1.185325 1.185336 z m 8.297294,-1.439328 v -2.539995 h -3.902383 -3.902393 l 0.0501,1.142997 0.0501,1.142999 1.312334,0.0495 1.312325,0.0495 v 1.347537 1.347544 h 2.539989 2.539989 z m 5.587976,1.439328 v -1.100669 h -1.100665 -1.100656 v 1.100669 1.100673 h 1.100656 1.100665 z m 8.466635,0 v -1.100669 h -1.185336 -1.185325 v 1.100669 1.100673 h 1.185325 1.185336 z m 10.837287,0 v -1.100669 h -1.10068 -1.10065 v 1.100669 1.100673 h 1.10065 1.10068 z M 20.362261,93.852846 v -1.185097 h -1.185325 -1.185335 v 1.072437 c 0,0.58985 0.0508,1.123248 0.112889,1.185327 0.0621,0.0621 0.595489,0.112891 1.185325,0.112891 h 1.072446 z m 22.013236,-6.942423 v -8.127986 h -1.011806 -1.011795 l -0.0465,2.751666 -0.0465,2.751665 -1.396994,0.0492 -1.396994,0.0492 v 1.178487 1.178479 h 1.439333 1.439325 v 4.148658 4.148652 h 1.015995 1.015996 z m 27.770552,6.942653 v -1.185327 h -1.100666 -1.100665 v 1.185327 1.185328 h 1.100665 1.100666 z m 19.435108,-1.650997 0.0465,-2.751666 h 1.604463 1.604463 v 1.447068 1.447066 l 1.142995,-0.0501 1.142996,-0.0501 0.0455,-3.936993 0.0455,-3.936989 h -1.181606 -1.181596 l -0.0492,1.396998 -0.0492,1.396998 -1.566323,0.0487 -1.566323,0.0487 V 85.816074 84.370386 H 88.43399 87.248665 v 1.439339 1.439327 h -1.354664 -1.354654 v 1.100663 1.100657 h 1.354654 1.354664 v 2.801735 2.801736 l 1.142996,-0.0501 1.142996,-0.0501 z m 13.754073,1.650997 v -1.185327 h -2.53998 -2.539991 v 1.072437 c 0,0.58985 0.0508,1.123248 0.112889,1.185327 0.0621,0.0621 1.205075,0.112891 2.539992,0.112891 h 2.42709 z M 17.652943,91.143751 v -1.185339 h -2.539989 -2.539989 v 1.185339 1.185326 h 2.539989 2.539989 z m 11.006612,0 v -1.185339 h -3.894653 -3.894643 v 1.07245 c 0,0.589839 0.0508,1.123238 0.112889,1.185326 0.0621,0.0621 1.814683,0.112889 3.894644,0.112889 h 3.781763 z m 33.154599,-0.0423 0.0501,-1.142999 h -1.108406 -1.108394 v 1.193418 1.193408 l 1.058325,-0.0504 1.058335,-0.0504 z m 5.587976,0 0.0501,-1.142999 H 66.343825 65.23543 v 1.193418 1.193408 l 1.058325,-0.0504 1.058336,-0.0504 z m 5.453238,0.0423 v -1.185339 h -1.185336 -1.185325 v 1.07245 c 0,0.589839 0.0508,1.123238 0.11289,1.185326 0.0621,0.0621 0.595487,0.112889 1.185325,0.112889 h 1.072446 z m 11.175952,0 v -1.185339 h -1.185336 -1.185325 v 1.185339 1.185326 h 1.185325 1.185336 z m 44.1958,-0.253999 v -1.439339 h 1.35466 1.35466 v -1.100657 -1.100663 h -1.35466 -1.35466 v -1.439327 -1.439339 h -1.18533 -1.18533 v 3.866439 c 0,2.126536 0.0508,3.917234 0.1129,3.979322 0.0621,0.0621 0.59547,0.112889 1.18532,0.112889 h 1.07244 z M 20.362261,88.349756 v -1.100663 h -1.185325 -1.185335 v 0.987773 c 0,0.543279 0.0508,1.038578 0.112889,1.100658 0.0621,0.0621 0.595489,0.112889 1.185325,0.112889 h 1.072446 z m 27.601212,0 v -1.100663 h -1.100665 -1.100655 v 0.987773 c 0,0.543279 0.0508,1.038578 0.11289,1.100658 0.0621,0.0621 0.557376,0.112889 1.100654,0.112889 h 0.987776 z m 11.175953,0 v -1.100663 h -1.185325 -1.185335 v 1.100663 1.100657 h 1.185335 1.185325 z m 11.006623,0 v -1.100663 h -1.100666 -1.100665 v 1.100663 1.100657 h 1.100665 1.100666 z m 5.587967,-0.254 v -1.354662 h 1.354663 1.354665 v -2.793995 -2.793996 h 1.354654 1.354664 v -1.354667 -1.354658 h 1.693322 1.693333 v 1.354658 1.354667 h 1.100656 1.100665 v -2.793994 -2.793996 h 1.447064 1.447064 l -0.0501,-1.142998 -0.0501,-1.142998 -2.751659,-0.0465 -2.751648,-0.0465 v -1.604466 -1.604478 h 1.354653 1.354665 v -2.455324 -2.455326 h -1.093814 -1.093816 l -0.0492,1.396998 -0.0492,1.396997 -1.396994,0.0492 -1.396995,0.0492 v 2.617815 2.617817 h -1.354662 -1.354655 v 2.793983 2.793995 h -1.608663 -1.608662 v -1.354655 -1.354669 h -6.938442 -6.93844 l -0.0465,-2.751654 -0.0465,-2.751666 -2.497649,-0.0469 -2.497659,-0.0469 v 1.18986 1.189858 h 1.439323 1.439335 v 1.608666 1.608657 h -1.439335 -1.439323 v 1.185338 1.185328 h 1.439323 1.439335 v 1.354668 1.354657 h 1.100654 1.100666 V 79.798458 78.44379 h 1.693323 1.693323 v 1.347538 1.347547 l 1.312334,0.0495 1.312325,0.0495 0.0495,1.312328 0.0495,1.312327 h 1.086415 1.086416 l 0.0495,-1.312327 0.0495,-1.312328 1.566333,-0.0487 1.566324,-0.0487 v 1.615016 1.615017 h -1.447065 -1.447063 l 0.0501,1.142999 0.0501,1.142998 1.396994,0.0492 1.396995,0.0492 v 1.234924 c 0,0.679208 0.0508,1.285727 0.112888,1.347807 0.0621,0.0621 0.595487,0.112889 1.185325,0.112889 h 1.072447 z m 27.601214,0 v -1.354662 h 1.35465 1.35468 v -1.185329 -1.185338 h -1.35468 -1.35465 V 83.01576 81.661102 h -1.18533 -1.18533 v 1.354658 1.354667 h -1.362387 -1.362404 l 0.0501,1.142999 0.0501,1.142998 1.312335,0.0495 1.312316,0.0495 v 1.347533 1.347537 h 1.18533 1.18533 z m 11.17595,0.254 v -1.100663 h -1.43933 -1.43932 v -2.793995 -2.793996 h -1.18533 -1.18533 v 3.894663 3.894648 h 2.62466 2.62465 z m -82.972966,-3.04799 v -1.439338 h 1.354653 1.354665 v -1.354666 -1.354659 h 1.439323 1.439335 v -2.539996 -2.539995 h -2.789799 -2.789788 l -0.0465,-2.751664 -0.0465,-2.751657 h -2.45532 -2.455329 l -0.0469,2.497655 -0.0469,2.497667 h 1.359193 1.359185 v 1.439328 1.439337 h 1.354664 1.354665 v 1.608657 1.608667 h -1.608664 -1.608663 v -1.439328 -1.439337 h -2.539989 -2.539989 v 1.185339 1.185327 h 1.439334 1.439324 v 1.608658 1.608666 h -2.793988 -2.793988 v 1.185338 1.185329 h 5.333977 5.333978 z M 53.55145,82.761761 v -3.979324 h -1.185325 -1.185336 v 2.793996 2.793994 h -1.354654 -1.354664 v 1.185338 1.185329 h 2.539989 2.53999 z m 13.85068,2.751665 0.0501,-1.142999 h -3.902393 -3.902383 v 1.188519 1.188508 l 3.852313,-0.0455 3.852324,-0.0455 z m 16.62919,-1.312328 v -2.539996 h -1.185336 -1.185325 v 2.539996 2.539996 h 1.185325 1.185336 z m 49.78377,1.354667 v -1.185338 h -1.18532 -1.18532 v 1.185338 1.185329 h 1.18532 1.18532 z M 9.355638,82.761761 V 81.661102 H 8.2549827 7.1543174 v 1.100659 1.100667 H 8.2549827 9.355638 Z m 38.607835,0 v -1.100659 h -1.100665 -1.100655 v 1.100659 1.100667 h 1.100655 1.100665 z m 11.175953,0 v -1.100659 h -1.185325 -1.185335 v 1.100659 1.100667 h 1.185335 1.185325 z m 33.189188,0 v -1.100659 h -1.185325 -1.185336 v 1.100659 1.100667 h 1.185336 1.185325 z m 5.418648,-0.253999 v -1.354659 h 1.354653 1.354665 V 79.967776 78.782437 H 99.101915 97.747262 V 77.427781 76.073112 H 96.646596 95.54593 v 1.354669 1.354656 h -1.354653 -1.354665 v 1.178209 1.178207 l 1.312325,0.0495 1.312333,0.0495 0.0495,1.312338 0.0495,1.312327 h 1.093536 1.093546 z m 22.182558,0.007 v -1.347767 l 1.39701,-0.0492 1.39699,-0.0492 v -1.100666 -1.100668 l -1.38999,-0.0491 -1.39,-0.0491 -0.0493,-1.305586 -0.0493,-1.30559 -1.05832,-0.0504 -1.05832,-0.0504 v 1.362738 1.362747 h -1.60866 -1.60867 v -1.354666 -1.354669 h -2.62465 -2.62466 v 1.185338 1.185328 h 1.43934 1.43932 v 1.354668 1.354657 h 1.35466 1.35465 v 1.354669 1.354666 h 2.54 2.53998 v -1.347817 z m 5.41864,0.23908 v -1.108749 l -1.05833,0.0504 -1.05832,0.0504 -0.0525,0.82515 c -0.078,1.226327 -0.02,1.291517 1.1478,1.291517 h 1.02131 V 82.753861 Z M 12.234296,79.798636 v -1.354658 h 1.269993 1.269996 V 77.25864 76.073312 h -1.263146 -1.263154 l -0.0492,-1.396998 -0.0492,-1.396997 -2.4976492,-0.0469 -2.4976594,-0.0469 v 1.189858 1.189857 h 1.3546642 1.3546542 v 2.793996 2.793994 h 1.1853342 1.185326 z m 96.688914,0.16934 v -1.185339 h -1.18533 -1.18533 v 1.185339 1.185327 h 1.18533 1.18533 z m 19.30391,0 v -1.185339 h -1.18533 -1.18533 v 1.185339 1.185327 h 1.18533 1.18533 z m 5.58797,0 v -1.185339 h -1.18532 -1.18532 v 1.185339 1.185327 h 1.18532 1.18532 z M 20.362261,77.25091 v -1.193078 l -1.142995,0.0501 -1.142996,0.0501 -0.0501,1.143 -0.0501,1.142997 h 1.193065 1.193065 z m 27.601212,-3.4e-4 v -1.193417 l -1.058325,0.0504 -1.058335,0.0504 -0.0501,1.143001 -0.0501,1.142996 h 1.108405 1.108395 z m 44.330542,0.0504 -0.0501,-1.143001 -1.142995,-0.0501 -1.142997,-0.0501 v 1.193068 1.193068 h 1.193066 1.193065 z m 38.642425,-0.0423 v -1.185338 h -1.18533 -1.18533 v 1.185338 1.185328 h 1.18533 1.18533 z m -85.644145,-4.444992 0.0465,-2.751665 1.566323,-0.0487 1.566323,-0.0487 v 1.445688 1.445689 h 1.178484 1.178477 l 0.0492,-1.396999 0.0492,-1.396997 2.751658,-0.0465 2.751649,-0.0465 V 67.263855 64.55872 h 1.354663 1.354665 V 63.458054 62.357386 H 57.784772 56.430109 V 59.56339 56.769396 h -1.185326 -1.185324 v 1.354668 1.354668 h -1.608665 -1.608653 v -1.608669 -1.608666 h 1.354654 1.354665 v -1.185328 -1.185327 h -1.354665 -1.354654 v -1.608669 -1.608658 h 1.608653 1.608664 v 1.439328 1.439329 h 1.185324 1.185326 v -1.439329 -1.439328 h 1.608662 1.608664 v 1.439328 1.439329 h 1.354654 1.354664 v 1.608666 1.608658 h -1.354664 -1.354654 v 2.539996 2.539995 h 1.100654 1.100666 v -1.350458 -1.350467 l 2.751659,-0.0465 2.751648,-0.0465 0.0501,-1.142997 0.0501,-1.142998 H 66.089867 64.727473 V 55.160796 53.55213 h 1.362394 1.362394 l -0.0501,-1.142999 -0.0501,-1.142996 -1.305325,-0.0493 -1.305334,-0.0493 -0.0493,-1.305328 -0.0493,-1.305338 -1.390255,-0.0491 -1.390254,-0.0491 -0.0491,-1.390257 -0.0491,-1.390257 -1.058325,-0.0504 -1.058335,-0.0504 v 1.447397 1.447417 h -1.608654 -1.608662 v -1.439655 -1.439328 h -2.624659 -2.62465 v 1.435027 1.435038 l -2.666988,0.0466 -2.666988,0.0466 -0.0504,1.058328 -0.0504,1.058327 h 1.362733 1.362745 v 1.608668 1.608669 h -1.354664 -1.354653 v 1.185328 1.185327 h 1.354653 1.354665 v 3.054354 3.054345 l -1.566323,-0.0487 -1.566333,-0.0487 -0.0465,-2.751656 -0.0465,-2.751665 h -1.181136 -1.181134 v 1.354668 1.354658 h -1.523994 -1.523993 v -1.608659 -1.608666 h 1.269994 1.269995 V 55.07575 53.890412 h -1.262875 -1.262864 l -0.0495,-1.31233 -0.0495,-1.312335 -3.936984,-0.0455 -3.936982,-0.0454 v 1.188459 1.188448 h 1.439333 1.439325 v 1.608666 1.608668 h -1.439325 -1.439333 v 3.897774 3.897782 l 3.936982,-0.0454 3.936984,-0.0455 0.0495,-1.312328 0.0495,-1.312337 h 1.516863 1.516874 v 1.608667 1.608667 H 41.61359 40.343596 v 1.185328 1.185328 h 1.269994 1.269995 v 2.878665 2.878667 H 41.61359 40.343596 v 1.185326 1.185328 h 2.45113 2.451129 z m 0.0747,-4.981222 c -0.0621,-0.0621 -0.11289,-0.824078 -0.11289,-1.693326 v -1.580438 h 2.793988 2.793988 v -1.354668 -1.354667 h 1.608653 1.608664 v 1.608667 1.608667 h -1.439325 -1.439334 v 1.439328 1.439327 h -2.850427 c -1.567744,0 -2.901238,-0.0508 -2.963317,-0.11289 z M 34.247482,60.755048 v -1.615016 h 1.615012 1.615014 l -0.0487,1.566328 -0.0487,1.566327 -1.566324,0.0487 -1.566322,0.0487 z m 22.182576,13.624958 v -1.185337 h -2.624659 -2.62466 v 1.185337 1.185327 h 2.62466 2.624659 z m 46.905122,-0.008 v -1.193067 l -1.14299,0.0501 -1.143,0.0501 -0.0501,1.142998 -0.0501,1.142988 h 1.19306 1.19306 z m 5.58798,-2.616926 v -3.809994 h -2.53999 -2.53999 v 2.455325 2.455327 h 1.35465 1.35467 v 1.354668 1.354667 h 1.18533 1.18533 z m 19.30391,2.616926 v -1.193067 l -1.143,0.0501 -1.14299,0.0501 -0.0501,1.142998 -0.0501,1.142998 h 1.19307 1.19307 z m 5.58797,0.008 v -1.185337 h -1.18532 -1.18532 v 1.185337 1.185327 h 1.18532 1.18532 z M 23.071529,68.961344 v -3.894663 h -3.894643 -3.894653 v 3.894663 3.894665 h 3.894653 3.894643 z m -5.418636,0 v -1.523997 h 1.608652 1.608664 v 1.523997 1.523997 h -1.608664 -1.608652 z m 22.182565,1.439327 v -2.455325 h -1.185325 -1.185335 v 1.269999 1.269996 H 36.110144 34.75548 v 1.185329 1.185339 h 2.539989 2.539989 z m 33.01986,-1.439327 V 65.066681 H 69.045333 65.23535 v 3.894663 3.894665 h 3.809983 3.809985 z m -5.418648,0 v -1.523997 h 1.523993 1.523994 v 1.523997 1.523997 H 68.960663 67.43667 Z m 24.857295,2.751666 -0.0501,-1.142998 -1.142995,-0.0501 -1.142997,-0.0501 v 1.193069 1.193068 h 1.193066 1.193065 z m 8.162565,-4.360333 v -5.50332 h 1.43932 1.43933 v -1.354668 -1.354657 h 1.35465 1.35468 v -1.185338 -1.185328 h -1.35468 -1.35465 v -1.439328 -1.439336 h -1.18533 -1.18533 v 2.793993 2.793997 h -1.354657 -1.354654 v 5.50333 5.503319 H 96.900545 95.54588 v 1.185329 1.185339 h 2.45533 2.45532 z m 22.35191,1.608667 v -3.894663 h -3.97933 -3.97932 v 3.894663 3.894665 h 3.97932 3.97933 z m -5.58798,0 v -1.523997 h 1.60865 1.60866 v 1.523997 1.523997 h -1.60866 -1.60865 z m -107.864872,0 V 67.945346 H 6.8155989 4.2756097 v 1.015998 1.015998 H 6.8155989 9.355588 Z m 69.087706,0 v -1.015998 h -1.185285 -1.185325 v 1.015998 1.015998 h 1.185325 1.185335 z m 16.763929,-1.439326 v -2.455337 h -1.185336 -1.185325 v 2.455337 2.455324 h 1.185325 1.185336 z m 38.607817,1.446176 v -1.009158 l -1.39699,-0.0492 -1.39699,-0.0492 -0.0485,-1.650997 -0.0485,-1.650997 h 1.44547 1.44545 v -1.100658 -1.100668 h -3.98739 -3.9874 l 0.0504,1.058329 0.0504,1.058337 1.31233,0.0494 1.31232,0.0495 v 2.702204 2.702205 h 2.62467 2.62464 z m -102.311476,-2.758515 0.0501,-1.142998 h -1.193065 -1.193065 v 1.193068 1.193068 l 1.142995,-0.0501 1.142996,-0.0501 z m 49.649048,0.0423 v -1.185328 h -1.100666 -1.100655 v 1.072439 c 0,0.589848 0.0508,1.123247 0.112889,1.185337 0.0621,0.0621 0.557388,0.11289 1.100656,0.11289 h 0.987776 z m -68.952616,-2.836324 0.0504,-1.058329 H 10.802981 9.355578 V 60.917987 59.478662 H 8.2549127 7.1542574 v 1.439325 1.439339 H 5.7149234 4.2755996 v 1.103778 1.103788 l 3.9369832,-0.0455 3.9369832,-0.0455 z m 77.384991,0 0.0504,-1.058329 h -1.193416 -1.193405 v 1.108398 1.108398 l 1.142996,-0.0501 1.142996,-0.0501 z m 22.047493,-1.566328 v -2.709335 h 1.60866 1.60865 v 1.354667 1.354668 h 1.18534 1.18533 v -1.354668 -1.354667 h 1.60865 1.60866 v 1.362408 1.362397 l 1.143,-0.0501 1.143,-0.0501 v -2.455325 -2.455338 l -1.39699,-0.0492 -1.39701,-0.0492 v -1.432478 -1.432485 h -4.14864 -4.14865 v -2.709328 -2.709325 h -1.18533 -1.18533 v 1.354659 1.354666 h -1.35466 -1.35466 v 1.185331 1.185337 h 1.35466 1.35466 v 2.963324 2.963326 h -1.35466 -1.35466 v 1.439335 1.439329 h -1.35462 -1.35465 v 1.100668 1.100658 h 3.89465 3.89465 z M 75.734016,60.663809 V 59.478472 H 74.54869 73.363366 v 1.072447 c 0,0.58984 0.0508,1.123239 0.112888,1.185329 0.0621,0.0621 0.595487,0.112889 1.185325,0.112889 h 1.072437 z m 5.418646,0 v -1.185337 h -1.100666 -1.100655 v 1.185337 1.185328 h 1.100655 1.100666 z m 5.587976,0 v -1.185337 h -1.100665 -1.100656 v 1.185337 1.185328 h 1.100656 1.100665 z m 8.432035,-0.0423 0.0501,-1.142997 h -1.447065 -1.447064 v -2.793997 -2.793993 h -1.185325 -1.185336 v 3.983731 3.983734 l 2.582331,-0.0467 2.582319,-0.0468 z M 84.03132,57.700516 v -1.439337 h 1.354653 1.354665 V 55.075852 53.890514 H 85.385973 84.03132 v -1.354688 -1.35467 h -1.185336 -1.185325 v 1.35467 1.354658 h -1.354663 -1.354655 v 1.185338 1.185327 h 1.354655 1.354663 v 1.439327 1.439338 h 1.185325 1.185336 z m 44.1958,0.254 v -1.185338 h -1.18533 -1.18533 v 1.185338 1.185328 h 1.18533 1.18533 z M 59.139426,55.075852 v -1.185338 h -1.185325 -1.185335 v 1.185338 1.185327 h 1.185335 1.185325 z m 38.607836,0 v -1.18534 H 96.646596 95.54593 v 1.185338 1.185327 h 1.100666 1.100666 z m 27.601198,-0.008 v -1.193387 l -1.05833,0.0504 -1.05832,0.0504 -0.052,0.911149 c -0.0753,1.321136 -0.0305,1.374847 1.14729,1.374847 h 1.02131 z M 45.254155,52.358886 v -1.193069 l -1.142996,0.0501 -1.142994,0.0501 -0.0501,1.142996 -0.0501,1.142999 h 1.193064 1.193066 z m 33.189189,0.008 v -1.185462 h -1.354665 -1.354663 v -1.362406 -1.362399 l -1.142997,0.0501 -1.142994,0.0501 -0.0469,2.497665 -0.0469,2.497657 h 2.544519 2.544519 z m 11.175952,-0.254002 v -1.439328 h 1.362733 1.362745 l -0.0504,-1.058337 -0.0504,-1.058328 -1.305595,-0.0493 -1.305584,-0.0493 -0.0491,-1.389997 -0.0491,-1.389997 -1.396995,-0.0492 -1.396994,-0.0492 v -1.605716 -1.605729 l 3.005658,0.0462 3.005646,0.0462 0.0465,2.744615 0.0465,2.744614 1.308166,0.0494 1.308173,0.0494 0.0495,1.312328 0.0495,1.312336 h 1.089346 1.089346 l 0.0465,-2.751663 0.0465,-2.751665 1.312334,-0.0495 1.312325,-0.0495 v -2.441165 -2.441086 l -1.312325,-0.0495 -1.312334,-0.0495 -0.0494,-1.312327 -0.0495,-1.312339 h -1.086416 -1.086416 l -0.0495,1.312339 -0.0495,1.312327 -1.566333,0.0487 -1.566323,0.0487 V 38.826348 37.46533 h -1.178204 -1.178206 l -0.0495,1.312329 -0.0494,1.312337 -1.566333,0.0487 -1.566323,0.0487 v -1.608165 -1.608168 l 1.396994,-0.0492 1.396995,-0.0492 0.0501,-1.142997 0.0501,-1.142999 H 88.187712 86.740648 V 33.232 31.877342 h -1.100665 -1.100656 v 6.857987 6.85798 h -1.439333 -1.439325 v 1.185327 1.185338 h 2.793989 2.793987 v 2.793996 2.793995 h 1.185325 1.185336 z m 5.503307,0.254002 v -1.100668 l -1.142996,-0.0501 -1.142995,-0.0501 v 1.20081 1.200806 l 1.142995,-0.0501 1.142996,-0.0501 z m 27.650397,-0.296331 0.0492,-1.396999 h 1.25601 1.25602 l 0.0495,-1.312336 0.0494,-1.312328 1.397,-0.0492 1.397,-0.0492 v -1.178487 -1.178477 h -2.70933 -2.7093 V 42.88423 40.174895 h -1.43933 -1.43934 v -1.354657 -1.354669 h -1.35466 -1.35465 v -1.439327 -1.439338 h -1.18533 -1.18534 v 1.439338 1.439327 h -1.35465 -1.35466 v 2.448206 2.448206 l 1.31232,0.0495 1.31232,0.0495 0.0493,1.305597 0.0493,1.305598 1.39,0.0491 1.38999,0.0491 0.0465,2.744615 0.0465,2.744604 1.30816,0.0494 1.30816,0.0494 0.0493,1.404575 0.0493,1.404578 1.13603,-0.0499 1.13603,-0.0499 z m 5.45412,0.296331 v -1.185331 h -1.18533 -1.18533 v 1.185331 1.185327 h 1.18533 1.18533 z M 20.362261,49.564758 v -1.108409 l -1.142995,0.0501 -1.142996,0.0501 -0.0504,1.058338 -0.0504,1.058327 h 1.193405 1.193405 z m 49.783788,0.008 v -1.100669 h -1.100666 -1.100665 v 1.100669 1.100657 h 1.100665 1.100666 z m 11.006613,0 v -1.100669 h -1.100666 -1.100655 v 1.100669 1.100657 h 1.100655 1.100666 z m 24.891898,0 v -1.100669 h -1.35468 -1.35465 v -1.447067 -1.447066 l -1.14299,0.0501 -1.143,0.0501 -0.0469,2.497665 -0.0469,2.497654 h 2.54452 2.54453 z m 24.89188,0 v -1.100669 h -1.18533 -1.18533 v 1.100669 1.100657 h 1.18533 1.18533 z M 17.652943,46.778493 v -1.185328 h -2.539989 -2.539989 v 1.185328 1.185338 h 2.539989 2.539989 z m 27.601212,0 v -1.185328 h -2.455329 -2.45532 v 1.185328 1.185338 h 2.45532 2.455329 z M 67.39891,45.466165 67.35201,42.9685 64.85436,42.9216 62.356701,42.8747 v 1.098348 1.098348 l 1.396994,0.0492 1.396995,0.0492 0.0492,1.396995 0.0492,1.396999 h 1.098345 1.098335 z m 5.456458,1.304599 v -1.193069 l -1.142996,0.0501 -1.142995,0.0501 -0.0501,1.142998 -0.0501,1.142997 h 1.193065 1.193065 z m 5.587976,0 v -1.193069 l -1.142995,0.0501 -1.142996,0.0501 -0.0501,1.142998 -0.0501,1.142997 h 1.193065 1.193065 z m 36.067836,0.008 v -1.185339 h -1.18533 -1.18532 v 1.185367 1.185338 h 1.18532 1.18533 z M 23.071579,41.275474 V 37.465479 H 20.52385 17.976131 l 0.0501,1.142999 0.0501,1.142997 1.396994,0.0492 1.396995,0.0492 v 1.510307 1.510297 l -1.396995,0.0492 -1.396994,0.0492 -0.0504,1.058328 -0.0504,1.058338 h 2.548069 2.548069 z m 11.175953,1.354669 v -2.455336 h -1.185325 -1.185335 v 1.354667 1.354668 h -1.354655 -1.354664 v 1.100659 1.100667 h 2.53999 2.539989 z m 5.553726,1.396997 -0.0504,-1.058338 -1.142995,-0.0501 -1.142995,-0.0501 v 1.108408 1.108398 h 1.193405 1.193405 z m 8.162215,-0.0504 v -1.108751 l -1.058325,0.0504 -1.058335,0.0504 -0.0504,1.058338 -0.0504,1.058328 h 1.108745 1.108745 z m 11.141703,0.0504 -0.0504,-1.058338 -1.142995,-0.0501 -1.142995,-0.0501 v 1.108408 1.108398 h 1.193405 1.193405 z m 16.62884,-0.0501 v -1.108407 l -1.142997,0.0501 -1.142994,0.0501 -0.0504,1.058338 -0.0504,1.058328 h 1.193414 1.193406 z m 55.202424,0 v -1.108407 l -1.14299,0.0501 -1.143,0.0501 -0.0504,1.058338 -0.0504,1.058328 h 1.19341 1.19341 z M 28.659555,39.666506 V 36.95718 h 1.439324 1.439335 V 35.771853 34.586514 H 30.098879 28.659555 V 33.231857 31.877189 H 27.55889 26.458235 v 5.249321 5.24933 h 1.100655 1.100665 z m 22.182576,1.608666 v -1.100667 h -1.185336 -1.185324 v 1.100667 1.100668 h 1.185324 1.185336 z m 11.006613,0 v -1.100667 h -1.100656 -1.100664 v 1.100667 1.100668 h 1.100664 1.100656 z m 11.006624,0.007 v -1.093507 l -1.312336,-0.0495 -1.312323,-0.0495 -0.0463,-2.920995 -0.0463,-2.920994 h 1.358663 1.358656 v -1.439339 -1.439328 h 1.439333 1.439325 v -1.100656 -1.100668 h -1.439335 -1.439323 v -1.439328 -1.439326 h -2.45113 -2.45113 l -0.0465,2.751655 -0.0465,2.751664 -1.566324,0.0487 -1.566333,0.0487 v -2.800347 -2.800354 h -1.439444 -1.439324 v -1.354658 -1.354669 h -1.100666 -1.100664 v 2.539996 2.539995 h 1.354664 1.354664 v 1.608668 1.608657 h -2.793988 -2.793988 v 1.185339 1.185328 h 1.439323 1.439325 v 1.354667 1.354657 h 1.100664 1.100666 v -1.354657 -1.354667 h 3.047987 3.047987 v 4.063993 4.063991 h 2.45532 2.45532 z m 5.587976,-1.615796 v -2.709325 h 1.354654 1.354664 V 34.417056 31.87706 h -1.100666 -1.100655 v 1.354668 1.354657 h -1.439334 -1.439323 v 3.894694 3.894662 h 1.185325 1.185335 z m 49.783776,1.608666 v -1.100667 h -1.18533 -1.18533 v 1.100697 1.100668 h 1.18533 1.18533 z m 5.58797,0 v -1.100667 h -1.18532 -1.18532 v 1.100697 1.100668 h 1.18532 1.18532 z M 37.08827,37.16875 37.13497,34.586414 H 35.945234 34.75549 v 2.632406 2.632396 l 1.142994,-0.0501 1.142996,-0.0501 z m 5.287227,0.0423 v -2.624665 h -1.015996 -1.015995 v 2.624665 2.624657 h 1.015995 1.015996 z m 5.587976,1.439329 v -1.18533 h -1.100665 -1.100655 v 1.07244 c 0,0.589848 0.0508,1.123246 0.11289,1.185327 0.0621,0.0621 0.557376,0.11289 1.100654,0.11289 h 0.987776 z M 53.55145,37.21105 v -2.624665 h -1.185325 -1.185336 v 2.511776 c 0,1.381477 0.0508,2.562575 0.112891,2.624656 0.0621,0.0621 0.595486,0.11289 1.185334,0.11289 h 1.072436 z m 5.553376,1.396999 0.0501,-1.142999 h -1.193065 -1.193065 v 1.193068 1.193069 l 1.142995,-0.0501 1.142995,-0.0501 z m 5.587976,0 0.0501,-1.142999 h -1.193065 -1.193065 v 1.193068 1.193069 l 1.142995,-0.0501 1.142996,-0.0501 z m 60.655658,0.0423 V 37.46502 h -1.10066 -1.10065 v 1.07244 c 0,0.589848 0.0508,1.123246 0.11288,1.185327 0.0621,0.0621 0.55739,0.11289 1.10066,0.11289 h 0.98777 z m 5.58798,0 V 37.46501 h -1.18533 -1.18533 v 1.07245 c 0,0.589838 0.0508,1.123236 0.11289,1.185327 0.0621,0.0621 0.59549,0.11289 1.18533,0.11289 h 1.07244 z m -35.763767,-2.920998 0.0501,-1.142999 h -1.193066 -1.193065 v 1.193068 1.193068 l 1.142995,-0.0501 1.142996,-0.0501 z m 5.283907,0.0423 v -1.185336 h -1.100666 -1.100655 v 1.072449 c 0,0.589839 0.0508,1.123239 0.112889,1.185327 0.0621,0.0621 0.557378,0.11289 1.100656,0.11289 h 0.987776 z m 22.31731,-0.0423 0.0501,-1.142999 h -1.19307 -1.19307 v 1.193068 1.193068 l 1.143,-0.0501 1.143,-0.0501 z m 5.45323,-0.127 v -1.354668 h 1.35466 1.35466 v -1.185328 -1.185339 h -1.35466 -1.35466 v -1.354658 -1.354667 h -1.18533 -1.18533 v 1.347548 1.347537 l -1.31233,0.0495 -1.31232,0.0495 v 1.100659 1.100667 l 1.31232,0.0495 1.31233,0.0495 v 1.234657 c 0,0.679059 0.0508,1.285449 0.1129,1.347537 0.0621,0.0621 0.59547,0.11289 1.18532,0.11289 h 1.07244 z M 34.247532,31.70769 v -2.539996 h -2.539989 -2.53999 v 1.100668 1.100667 h 1.354664 1.354655 v 1.439329 1.439328 h 1.185335 1.185325 z m 13.715941,1.354668 v -1.185329 h -1.100665 -1.100655 v 1.072438 c 0,0.589849 0.0508,1.123249 0.11289,1.185329 0.0621,0.0621 0.557376,0.11289 1.100654,0.11289 h 0.987776 z m 44.330542,-0.0423 0.0501,-1.142998 h -1.193066 -1.193066 v 1.19307 1.193067 l 1.142997,-0.0501 1.142995,-0.0501 z m 5.453247,0.0423 V 31.877029 H 96.646596 95.54593 v 1.185329 1.185328 h 1.100666 1.100666 z M 6.6463196,30.268362 V 29.167694 H 5.4609945 4.2756596 v 1.100668 1.100667 h 1.1853349 1.1853251 z m 38.6078354,-0.254 v -1.354668 h 1.354653 1.354665 V 27.474367 26.28904 h -1.354665 -1.354653 v -4.156403 -4.156393 l -1.142996,0.0501 -1.142994,0.0501 -0.0453,4.106323 -0.0453,4.106334 h -2.706318 -2.706309 v 1.185327 1.185327 h 1.439323 1.439325 v 1.354668 1.354667 h 2.45532 2.455329 z m 11.175953,-5.333991 v -6.688657 h -1.185336 -1.185324 v 2.793995 2.793994 h -1.608664 -1.608653 v -2.801724 -2.801735 l -1.142996,0.0501 -1.142994,0.0501 -0.0455,3.852324 -0.0455,3.852333 h 1.357834 1.357844 v 2.793996 2.793993 h 2.62465 2.624659 z m 27.601212,5.587991 v -1.100668 h -1.185336 -1.185325 v 1.100668 1.100667 h 1.185325 1.185336 z m 5.587976,0 V 29.167694 H 88.43396 87.248635 v 1.100668 1.100667 h 1.185325 1.185336 z m 5.552767,-0.296328 0.0495,-1.31234 h 1.258673 1.258686 l 0.0465,-2.751655 0.0465,-2.751665 1.312334,-0.0495 1.312324,-0.0495 v -2.540955 -2.540945 l -1.058325,0.0504 -1.058336,0.0504 -0.0495,1.312328 -0.0495,1.312328 H 96.897575 95.55423 l -0.0465,2.751665 -0.0465,2.751665 -1.312333,0.0495 -1.312325,0.0495 v 2.540605 2.540616 l 1.142995,-0.0501 1.142996,-0.0501 z M 9.355638,27.474367 V 26.28904 H 8.2549827 7.1543174 v 1.185327 1.185327 H 8.2549827 9.355638 Z m 5.418647,0 V 26.28904 h -1.100666 -1.100654 v 1.185327 1.185327 h 1.100654 1.100666 z m 5.587976,0 V 26.28904 h -1.185325 -1.185335 v 1.185327 1.185327 h 1.185335 1.185325 z m 5.587976,0 V 26.28904 h -1.185335 -1.185325 v 1.185327 1.185327 h 1.185325 1.185335 z m 55.202425,0 V 26.28904 h -1.100666 -1.100655 v 1.185327 1.185327 h 1.100655 1.100666 z m 5.587976,0 V 26.28904 h -1.100665 -1.100656 v 1.185327 1.185327 h 1.100656 1.100665 z m 19.303922,0 V 26.28904 h -1.10068 -1.10065 v 1.185327 1.185327 h 1.10065 1.10068 z M 78.443344,21.878636 v -3.902392 l -1.142995,0.0501 -1.142996,0.0501 -0.0455,3.852324 -0.0455,3.852333 h 1.188505 1.188505 z m 5.587976,2.801735 v -1.100668 h -1.185336 -1.185325 v 1.100668 1.100669 h 1.185325 1.185336 z m 5.587976,0 V 23.579703 H 88.43396 87.248635 v 1.100668 1.100669 h 1.185325 1.185336 z M 72.855368,19.092381 V 15.113059 H 69.045383 65.2354 v 3.979322 3.979323 h 3.809983 3.809985 z m -5.418648,0 v -1.608666 h 1.523993 1.523994 v 1.608666 1.608668 H 68.960713 67.43672 Z m 19.303918,2.793996 v -1.185328 h -1.100665 -1.100656 v 1.185328 1.185327 h 1.100656 1.100665 z m 5.553377,0.0423 -0.0501,-1.142998 -1.142995,-0.0501 -1.142997,-0.0501 v 1.193066 1.193068 h 1.193066 1.193065 z m -58.084403,-4.148663 -0.0467,-2.582326 -1.142995,-0.0501 -1.142995,-0.0501 v 2.632405 2.632396 h 1.189735 1.189745 z m 5.591296,1.439338 -0.0501,-1.142999 -1.142995,-0.0501 -1.142995,-0.0501 v 1.193068 1.193068 h 1.193065 1.193065 z m 22.013246,0 -0.0501,-1.142999 -1.058335,-0.0504 -1.058325,-0.0504 v 1.193408 1.193408 h 1.108394 1.108406 z M 84.03132,18.923021 v -1.439336 h 1.362393 1.362395 l -0.0501,-1.142999 -0.0501,-1.142998 -1.312326,-0.0495 -1.312323,-0.0495 v -1.26287 -1.262877 H 82.591926 81.152602 V 11.218275 9.8636159 h -2.539989 -2.539989 v 2.4511351 2.451136 l 2.751659,0.0465 2.751647,0.0465 0.0465,2.751654 0.0465,2.751666 h 1.181136 1.181135 z m 5.553377,0.296331 -0.0501,-1.142999 -1.142996,-0.0501 -1.142996,-0.0501 v 1.193068 1.193068 h 1.193065 1.193066 z m 5.587976,0 -0.0501,-1.142999 -1.142996,-0.0501 -1.142995,-0.0501 v 1.193068 1.193068 h 1.193065 1.193066 z m 10.871887,-0.0504 v -1.193408 l -1.05834,0.0504 -1.05833,0.0504 -0.0501,1.142999 -0.0501,1.142998 h 1.1084 1.10841 z m -13.750545,-2.828246 -0.0501,-1.142998 -1.142995,-0.0501 -1.142997,-0.0501 v 1.193068 1.193068 h 1.193066 1.193065 z m 11.041215,-0.0501 v -1.193068 l -1.14299,0.0501 -1.143,0.0501 -0.0501,1.142998 -0.0501,1.142999 h 1.19306 1.19306 z M 37.12619,13.673831 V 12.573174 H 35.940854 34.75553 v 1.100657 1.100668 h 1.185324 1.185336 z M 47.963473,12.319174 V 9.8638379 h -1.100665 -1.100655 v 2.4553361 2.455325 h 1.100655 1.100665 z m 41.655823,1.354657 V 12.573174 H 88.43396 87.248635 v 1.100657 1.100668 h 1.185325 1.185336 z M 42.375497,10.964505 V 9.8638379 h -1.015996 -1.015995 v 1.1006671 1.100669 h 1.015995 1.015996 z m 11.175953,0 V 9.8638379 h -1.185325 -1.185336 v 0.9877781 c 0,0.543278 0.0508,1.038578 0.112891,1.100667 0.0621,0.0621 0.595486,0.112891 1.185334,0.112891 h 1.072436 z m 33.154938,-0.0423 0.0504,-1.0583271 h -1.108745 -1.108736 v 1.1087481 1.108737 l 1.058326,-0.0504 1.058326,-0.0504 z m 5.587977,0 0.0504,-1.0583271 h -1.193406 -1.193416 v 1.1083981 1.108407 l 1.142997,-0.0501 1.142995,-0.0501 z M 28.659555,8.1705409 V 6.985213 H 27.55889 26.458235 v 1.1853279 1.185328 h 1.100655 1.100665 z M 84.03132,6.8158733 V 4.2759078 h -1.185336 -1.185325 v 2.5399956 2.5399955 h 1.185325 1.185336 z m 5.587976,1.3546676 V 6.985213 H 88.43396 87.248635 v 1.1853279 1.185328 h 1.185325 1.185336 z M 37.12619,5.3765458 V 4.2758878 H 35.940854 34.75553 v 1.100668 1.100658 h 1.185324 1.185336 z M 89.619296,133.73098 v -2.794 h 1.354653 1.354665 v -1.43933 -1.43934 h 2.963318 2.963327 v 3.04801 3.04799 H 95.54593 92.836612 v 1.18532 1.18535 h -1.608663 -1.608653 z m 24.891884,1.35466 v -1.43934 h 1.60867 1.60866 v 1.43934 1.43934 h -1.60866 -1.60867 z M 17.765822,114.73747 c -0.0621,-0.0621 -0.112879,-0.78598 -0.112879,-1.60866 v -1.49578 h 1.608652 1.608664 v 1.60868 1.60864 h -1.495774 c -0.822676,0 -1.546573,-0.0508 -1.608663,-0.11288 z M 111.63253,26.117009 v -3.050855 l 4.36032,0.0452 4.3603,0.0452 0.0487,1.566326 0.0487,1.56633 h -1.36101 -1.36101 v 1.439336 1.439328 h -3.048 -3.04798 z M 1.0583433,10.879896 V 1.0585833 H 10.9643 20.870259 v 9.8213127 9.821313 H 10.9643 1.0583433 Z m 16.5945997,0 V 4.2759078 H 10.9643 4.2756597 v 6.6039882 6.603989 H 10.9643 17.652943 Z M 6.6463197,10.795196 V 6.4772038 H 10.9643 15.282283 v 4.3179922 4.317993 H 10.9643 6.6463197 Z M 111.63253,19.086161 v -1.615017 l 1.56632,0.0487 1.56632,0.0487 0.0487,1.566328 0.0487,1.566328 h -1.61501 -1.61501 z m 5.58798,-8.206295 V 1.0585433 h 9.65195 9.65197 v 9.8213227 9.821313 h -9.65197 -9.65195 z m 16.59458,0 V 4.2758778 h -6.68863 -6.68864 v 6.6039882 6.603989 h 6.68864 6.68863 z m -11.04336,-0.0846 0.0479,-4.3181222 h 4.31239 4.31242 v 4.3179922 4.317993 l -4.36033,1.3e-4 -4.3603,1.2e-4 z"
       id="path854" />
  </g>
</svg>
